<svg width="69" height="65" viewBox="0 0 69 65" fill="none" xmlns="http://www.w3.org/2000/svg">
<g clip-path="url(#clip0_92_932)">
<path d="M36.7472 24.4552L31.626 11.4121L26.5049 24.4552" stroke="#31E1F3" stroke-width="2" stroke-linecap="round" stroke-linejoin="round"/>
<path d="M28.2598 19.9785H34.9929" stroke="#31E1F3" stroke-width="2" stroke-linecap="round" stroke-linejoin="round"/>
<path d="M40.9121 12.2744V24.4552" stroke="#31E1F3" stroke-width="2" stroke-linecap="round" stroke-linejoin="round"/>
<path d="M24.2217 30.4119L22.9735 30.9653C21.9679 31.4108 20.7981 31.0228 20.2489 30.067L17.7169 25.6402C17.1677 24.6845 17.4244 23.47 18.3089 22.816L19.4073 22.004C19.9565 21.5944 20.2846 20.9476 20.2846 20.2577V17.3976C20.2846 16.7077 19.9565 16.0609 19.4073 15.6513L18.3089 14.8464C17.4244 14.1925 17.1677 12.978 17.7169 12.0222L20.2489 7.60264C20.7981 6.64687 21.9679 6.25881 22.9735 6.70436L24.2217 7.2577C24.8494 7.53797 25.5698 7.49485 26.1618 7.14991L28.6225 5.71983C29.2145 5.37489 29.6068 4.76406 29.6852 4.08136L29.835 2.71596C29.9563 1.61646 30.8692 0.790039 31.9676 0.790039H37.0389C38.1373 0.790039 39.0502 1.62365 39.1715 2.71596L39.3213 4.08136C39.3926 4.76406 39.792 5.37489 40.384 5.71983L42.8447 7.14991C43.4367 7.49485 44.1571 7.53078 44.7848 7.2577L46.033 6.70436C47.0387 6.25881 48.2084 6.64687 48.7576 7.60264L51.2896 12.0294C51.8389 12.9852 51.5821 14.1997 50.6976 14.8536L49.5992 15.6657C49.05 16.0753 48.7219 16.722 48.7219 17.4119V20.2793C48.7219 20.9691 49.05 21.6159 49.5992 22.0255L50.6976 22.8304C51.5821 23.4843 51.8389 24.6988 51.2896 25.6546L48.7576 30.0814C48.2084 31.0371 47.0387 31.4252 46.033 30.9796L44.7777 30.4263" stroke="#31E1F3" stroke-width="2" stroke-linecap="round" stroke-linejoin="round"/>
<path d="M36.2981 48.1126C38.338 47.6383 40.221 46.3591 41.3907 44.2607C45.0141 45.3387 48.5232 47.4012 50.3492 50.944C51.2407 52.6759 51.633 54.5443 51.7472 56.4774C52.1822 63.8434 51.7757 64.2099 34.4936 64.2099C17.2115 64.2099 16.8121 63.8434 17.2471 56.4774C17.3613 54.5443 17.7536 52.6759 18.6451 50.944C20.471 47.4012 23.9802 45.3387 27.6036 44.2607C28.759 46.316 30.585 47.5952 32.5821 48.0839" stroke="#31E1F3" stroke-width="2" stroke-linecap="round" stroke-linejoin="round"/>
<path d="M34.5007 44.5335C37.4821 44.5335 39.9071 42.1118 40.4777 38.5114C40.5918 37.8072 40.706 37.031 40.7487 36.3196C41.0127 31.9144 38.3807 28.1416 34.5007 28.1416C30.6206 28.1416 27.9887 31.9144 28.2526 36.3196C28.2954 37.031 28.4095 37.8072 28.5236 38.5114C29.0871 42.1046 31.5121 44.5335 34.5007 44.5335Z" stroke="#31E1F3" stroke-width="2" stroke-linecap="round" stroke-linejoin="round"/>
<path d="M25.499 64.095V57.2393" stroke="#31E1F3" stroke-width="2" stroke-linecap="round" stroke-linejoin="round"/>
<path d="M43.4951 64.095V57.2393" stroke="#31E1F3" stroke-width="2" stroke-linecap="round" stroke-linejoin="round"/>
<path d="M28.2451 35.2921C30.8699 37.9439 33.2664 34.0273 33.2664 34.0273C33.2664 34.0273 35.6843 38.5763 40.7556 35.7521" stroke="#31E1F3" stroke-width="2" stroke-linecap="round" stroke-linejoin="round"/>
<path d="M13.5023 61.8023C0.820657 61.7736 0.521091 61.2993 0.863452 55.5143C0.956175 53.9405 1.27714 52.417 1.99752 51.0157C3.36697 48.3568 5.89188 46.7327 8.58797 45.8057" stroke="#31E1F3" stroke-width="2" stroke-linecap="round" stroke-linejoin="round"/>
<path d="M14.886 61.8018C14.4081 61.8018 13.9445 61.8018 13.4951 61.8018" stroke="#31E1F3" stroke-width="2" stroke-linecap="round" stroke-linejoin="round"/>
<path d="M14.8929 45.7983C17.3179 45.7983 19.2936 43.8293 19.7501 40.9045C19.8428 40.3296 19.9356 39.6972 19.9712 39.1223C20.1852 35.5363 18.0454 32.4678 14.8929 32.4678C11.7403 32.4678 9.60055 35.5363 9.81452 39.1223C9.85018 39.7044 9.94291 40.3368 10.0356 40.9045C10.4992 43.8293 12.4678 45.7983 14.8929 45.7983Z" stroke="#31E1F3" stroke-width="2" stroke-linecap="round" stroke-linejoin="round"/>
<path d="M7.5752 61.7084V56.1318" stroke="#31E1F3" stroke-width="2" stroke-linecap="round" stroke-linejoin="round"/>
<path d="M9.80762 38.2815C11.9402 40.4374 13.8946 37.2539 13.8946 37.2539C13.8946 37.2539 15.8631 40.9548 19.9857 38.6552" stroke="#31E1F3" stroke-width="2" stroke-linecap="round" stroke-linejoin="round"/>
<path d="M60.4133 45.7988C63.1094 46.7259 65.6343 48.3572 67.0038 51.0089C67.7313 52.4174 68.0451 53.9409 68.1378 55.5075C68.4802 61.2925 68.1806 61.774 55.499 61.7955" stroke="#31E1F3" stroke-width="2" stroke-linecap="round" stroke-linejoin="round"/>
<path d="M55.4983 61.8018C55.0489 61.8018 54.5853 61.8018 54.1074 61.8018" stroke="#31E1F3" stroke-width="2" stroke-linecap="round" stroke-linejoin="round"/>
<path d="M54.1077 45.7983C51.6827 45.7983 49.707 43.8293 49.2505 40.9045C49.1578 40.3296 49.065 39.6972 49.0294 39.1223C48.8154 35.5363 50.9551 32.4678 54.1077 32.4678C57.2603 32.4678 59.4001 35.5363 59.1861 39.1223C59.1504 39.7044 59.0577 40.3368 58.965 40.9045C58.5014 43.8293 56.5328 45.7983 54.1077 45.7983Z" stroke="#31E1F3" stroke-width="2" stroke-linecap="round" stroke-linejoin="round"/>
<path d="M61.4258 61.7084V56.1318" stroke="#31E1F3" stroke-width="2" stroke-linecap="round" stroke-linejoin="round"/>
<path d="M49.0146 38.2815C51.1473 40.4374 53.1016 37.2539 53.1016 37.2539C53.1016 37.2539 55.0702 40.9548 59.1928 38.6552" stroke="#31E1F3" stroke-width="2" stroke-linecap="round" stroke-linejoin="round"/>
</g>
<defs>
<clipPath id="clip0_92_932">
<rect width="69" height="65" fill="white"/>
</clipPath>
</defs>
</svg>
