<svg width="47" height="47" viewBox="0 0 47 47" fill="none" xmlns="http://www.w3.org/2000/svg">
<g clip-path="url(#clip0_92_832)">
<path d="M45.8698 17.2498L43.7098 12.0298C43.1398 11.7698 42.7998 11.6098 42.2298 11.3498L39.6698 12.1998C39.1798 12.0498 38.8398 11.9398 38.3498 11.7898C37.4098 10.5898 36.3398 9.52984 35.1598 8.60984C35.0098 8.11984 34.8998 7.76984 34.7498 7.28984L35.5998 4.72984C35.3398 4.15984 35.1798 3.81984 34.9198 3.24984L29.6998 1.08984C29.1098 1.30984 28.7598 1.43984 28.1698 1.65984L26.9598 4.07984C26.5098 4.31984 26.1798 4.48984 25.7298 4.71984C24.2498 4.53984 22.7398 4.52984 21.2198 4.71984C20.7698 4.47984 20.4398 4.30984 19.9898 4.07984L18.7798 1.66984C18.1898 1.44984 17.8398 1.31984 17.2498 1.09984L12.0298 3.25984C11.7698 3.82984 11.6098 4.16984 11.3498 4.73984L12.1998 7.29984C12.0498 7.78984 11.9398 8.13984 11.7898 8.61984C10.5898 9.55984 9.52984 10.6298 8.60984 11.8098C8.11984 11.9598 7.76984 12.0698 7.28984 12.2198L4.72984 11.3698C4.15984 11.6298 3.81984 11.7898 3.24984 12.0498L1.08984 17.2698C1.30984 17.8598 1.43984 18.2098 1.65984 18.7998L4.07984 20.0098C4.31984 20.4598 4.48984 20.7898 4.71984 21.2398C4.53984 22.7198 4.52984 24.2298 4.71984 25.7498C4.47984 26.1998 4.30984 26.5298 4.07984 26.9798L1.66984 28.1898C1.44984 28.7798 1.31984 29.1298 1.09984 29.7198L3.25984 34.9398C3.82984 35.1998 4.16984 35.3598 4.73984 35.6198L7.29984 34.7698C7.78984 34.9198 8.13984 35.0298 8.61984 35.1798C9.55984 36.3798 10.6298 37.4398 11.8098 38.3598C11.9598 38.8498 12.0698 39.1998 12.2198 39.6798L11.3698 42.2398C11.6298 42.8098 11.7898 43.1498 12.0498 43.7198L17.2698 45.8798C17.8598 45.6598 18.2098 45.5298 18.7998 45.3098L20.0098 42.8898C20.4598 42.6498 20.7898 42.4798 21.2398 42.2498C22.7198 42.4298 24.2298 42.4398 25.7498 42.2498C26.1998 42.4898 26.5298 42.6598 26.9798 42.8898L28.1898 45.2998C28.7798 45.5198 29.1298 45.6498 29.7198 45.8698L34.9398 43.7098C35.1998 43.1398 35.3598 42.7998 35.6198 42.2298L34.7698 39.6698C34.9198 39.1798 35.0298 38.8398 35.1798 38.3498C36.3798 37.4098 37.4398 36.3298 38.3598 35.1598C38.8498 35.0098 39.1898 34.8998 39.6798 34.7498L42.2398 35.5998C42.8098 35.3398 43.1498 35.1798 43.7198 34.9198L45.8798 29.6998C45.6598 29.1098 45.5298 28.7598 45.3098 28.1698L42.8898 26.9598C42.6498 26.5098 42.4798 26.1798 42.2498 25.7298C42.4298 24.2498 42.4398 22.7398 42.2498 21.2198C42.4898 20.7698 42.6598 20.4398 42.8898 19.9898L45.2998 18.7798C45.5198 18.1898 45.6498 17.8398 45.8698 17.2498Z" stroke="#31E1F3" stroke-width="2" stroke-miterlimit="10"/>
<path d="M23.46 37.3399C31.1919 37.3399 37.46 31.0808 37.46 23.3599C37.46 15.6389 31.1919 9.37988 23.46 9.37988C15.728 9.37988 9.45996 15.6389 9.45996 23.3599C9.45996 31.0808 15.728 37.3399 23.46 37.3399Z" stroke="#31E1F3" stroke-width="2" stroke-miterlimit="10"/>
<path d="M30.46 17.3501L23.46 24.3501L19.46 20.3501" stroke="#31E1F3" stroke-width="2" stroke-miterlimit="10"/>
</g>
<defs>
<clipPath id="clip0_92_832">
<rect width="46.95" height="46.95" fill="white"/>
</clipPath>
</defs>
</svg>
