<?xml version="1.0" encoding="UTF-8"?>
<svg id="_레이어_2" data-name="레이어 2" xmlns="http://www.w3.org/2000/svg" viewBox="0 0 473.7 870.71">
  <g id="_迹_1" data-name="卵迹_1">
    <g>
      <path d="M404.14,69.56C359.28,24.71,299.87,0,236.85,0S114.42,24.71,69.56,69.56C24.7,114.42,0,173.83,0,236.85v210.63c0,63.02,24.7,122.43,69.56,167.29,44.86,44.86,104.27,69.56,167.29,69.56s122.43-24.71,167.29-69.56c44.86-44.86,69.56-104.27,69.56-167.29v-210.63c0-63.02-24.71-122.43-69.56-167.29ZM448.74,447.49c0,116.84-95.05,211.89-211.89,211.89h0c-116.84,0-211.89-95.05-211.89-211.89v-210.63C24.96,120.02,120.02,24.96,236.85,24.96s211.89,95.05,211.89,211.89v210.63Z"/>
      <path d="M341.36,736.07l-104.5,104.5-104.5-104.5c-4.87-4.88-12.78-4.88-17.65,0-4.87,4.87-4.87,12.78,0,17.65l113.33,113.33c2.44,2.44,5.63,3.66,8.83,3.66s6.39-1.22,8.83-3.66l113.33-113.33c4.87-4.87,4.87-12.78,0-17.65-4.87-4.88-12.78-4.88-17.65,0Z"/>
      <path d="M238.29,99.97h-2.88c-20.02,0-36.31,16.29-36.31,36.31v75.22c0,20.02,16.29,36.31,36.31,36.31h2.88c20.02,0,36.31-16.29,36.31-36.31v-75.22c0-20.02-16.29-36.31-36.31-36.31ZM249.64,211.5c0,6.26-5.09,11.35-11.35,11.35h-2.88c-6.26,0-11.35-5.09-11.35-11.35v-75.22c0-6.26,5.09-11.35,11.35-11.35h2.88c6.26,0,11.35,5.09,11.35,11.35v75.22Z"/>
    </g>
  </g>
</svg>