<svg width="54" height="58" viewBox="0 0 54 58" fill="none" xmlns="http://www.w3.org/2000/svg">
<g clip-path="url(#clip0_92_581)">
<path d="M19.695 40.9014L23.8149 44.5547C24.4109 45.0823 24.4449 46.0082 23.8881 46.5779L21.7157 48.8042C21.1851 49.3476 20.2858 49.2157 19.9277 48.5457L16.8691 42.7953L19.695 40.904V40.9014Z" stroke="white" stroke-width="2" stroke-linecap="round" stroke-linejoin="round"/>
<path d="M16.8689 42.7954L11.2825 44.5548C5.62815 46.3353 1.52659 51.2812 0.78418 57.211" stroke="white" stroke-width="2" stroke-linecap="round" stroke-linejoin="round"/>
<path d="M37.1309 42.7954L42.7172 44.5548C48.3716 46.3353 52.4732 51.2812 53.2156 57.211" stroke="white" stroke-width="2" stroke-linecap="round" stroke-linejoin="round"/>
<path d="M34.3055 40.9014L30.1857 44.5547C29.5896 45.0823 29.5557 46.0082 30.1125 46.5779L32.2848 48.8042C32.8155 49.3476 33.7147 49.2157 34.0729 48.5457L37.1314 42.7953L34.3055 40.904V40.9014Z" stroke="white" stroke-width="2" stroke-linecap="round" stroke-linejoin="round"/>
<path d="M19.6943 40.9015L20.5753 39.791" stroke="white" stroke-width="2" stroke-linecap="round" stroke-linejoin="round"/>
<path d="M34.3048 40.9015L33.4238 39.791" stroke="white" stroke-width="2" stroke-linecap="round" stroke-linejoin="round"/>
<path d="M24.2822 45.5283C24.2822 45.5283 25.6886 48.8097 26.9983 48.8097C28.308 48.8097 29.717 45.5283 29.717 45.5283" stroke="white" stroke-width="2" stroke-linecap="round" stroke-linejoin="round"/>
<path d="M26.999 48.8096V55.8973" stroke="white" stroke-width="2" stroke-linecap="round" stroke-linejoin="round"/>
<path d="M26.998 0.791504V3.45305" stroke="white" stroke-width="2" stroke-linecap="round" stroke-linejoin="round"/>
<path d="M9.01855 18.0479H11.6562" stroke="white" stroke-width="2" stroke-linecap="round" stroke-linejoin="round"/>
<path d="M14.1836 6.28857L16.0475 8.16933" stroke="white" stroke-width="2" stroke-linecap="round" stroke-linejoin="round"/>
<path d="M44.9814 18.0479H42.3438" stroke="white" stroke-width="2" stroke-linecap="round" stroke-linejoin="round"/>
<path d="M39.816 6.28857L37.9521 8.16933" stroke="white" stroke-width="2" stroke-linecap="round" stroke-linejoin="round"/>
<path d="M41.3057 30.0498L39.2432 28.3906" stroke="white" stroke-width="2" stroke-linecap="round" stroke-linejoin="round"/>
<path d="M12.6943 30.0498L14.7543 28.3906" stroke="white" stroke-width="2" stroke-linecap="round" stroke-linejoin="round"/>
<path d="M21.6007 33.0494C21.0805 30.3773 18.7775 28.1088 17.7737 26.4944C16.1555 23.8962 15.0341 21.6963 15.055 18.7577C15.0994 12.0894 20.3904 6.79004 26.9989 6.79004C33.6074 6.79004 38.8984 12.0894 38.9429 18.7577C38.9638 21.6989 37.8423 23.8962 36.2242 26.4944C35.2177 28.1088 32.9173 30.3799 32.3971 33.0494" stroke="#31E1F3" stroke-width="2" stroke-linecap="round" stroke-linejoin="round"/>
<path d="M20.7354 20.2506C22.1365 19.5278 22.5914 17.8555 24.7062 17.8555C27.4014 17.8555 27.4014 20.575 30.0992 20.575C31.7853 20.575 32.4179 19.512 33.3145 18.7154" stroke="#31E1F3" stroke-width="2" stroke-linecap="round" stroke-linejoin="round"/>
<path d="M22.9385 35.5918H31.0606" stroke="white" stroke-width="2" stroke-linecap="round" stroke-linejoin="round"/>
<path d="M23.668 38.8442H30.3288" stroke="white" stroke-width="2" stroke-linecap="round" stroke-linejoin="round"/>
<path d="M25.5371 42.1733H28.4623" stroke="white" stroke-width="2" stroke-linecap="round" stroke-linejoin="round"/>
</g>
<defs>
<clipPath id="clip0_92_581">
<rect width="54" height="58" fill="white"/>
</clipPath>
</defs>
</svg>
