<svg width="49" height="44" viewBox="0 0 49 44" fill="none" xmlns="http://www.w3.org/2000/svg">
<path d="M42.3646 11.0714V2.5H1.53125V42.5H42.3646V34.881" stroke="white" stroke-width="2" stroke-miterlimit="10"/>
<path d="M1.02051 8H41.8538" stroke="white" stroke-width="2" stroke-miterlimit="10"/>
<path d="M4.08301 5H6.12467" stroke="white" stroke-width="2" stroke-miterlimit="10"/>
<path d="M8.16699 5H10.2087" stroke="white" stroke-width="2" stroke-miterlimit="10"/>
<path d="M12.25 5H14.2917" stroke="white" stroke-width="2" stroke-miterlimit="10"/>
<path d="M20.4163 12.0002H43.8955C46.1516 12.0002 47.9788 13.7902 47.9788 16.0002V29.0002C47.9788 31.2102 46.1516 33.0002 43.8955 33.0002H28.583L23.1828 38.2902C22.5397 38.9202 21.4372 38.4702 21.4372 37.5802V32.9902H20.4163C18.1603 32.9902 16.333 31.2002 16.333 28.9902V15.9902C16.333 13.7802 18.1603 11.9902 20.4163 11.9902V12.0002Z" stroke="#31E1F3" stroke-width="2" stroke-linejoin="round"/>
<path d="M32.667 27V29" stroke="#31E1F3" stroke-width="2" stroke-miterlimit="10"/>
<path d="M29.6963 19.96C29.6963 18.18 30.9009 17 32.718 17C34.4942 17 35.7396 18.22 35.7396 19.96C35.7396 20.98 34.9842 22.1 34.2288 22.69C32.9936 23.66 32.769 24.45 32.769 26" stroke="#31E1F3" stroke-width="2" stroke-miterlimit="10"/>
</svg>
