<svg width="60" height="63" viewBox="0 0 60 63" fill="none" xmlns="http://www.w3.org/2000/svg">
<g clip-path="url(#clip0_92_837)">
<path d="M16.5961 21C16.5961 23.1787 14.8855 24.9375 12.7663 24.9375C10.6472 24.9375 8.93652 23.1787 8.93652 21C8.93652 18.8213 10.6472 17.0625 12.7663 17.0625C14.8855 17.0625 16.5961 18.8213 16.5961 21Z" stroke="#31E1F3" stroke-width="2" stroke-miterlimit="10"/>
<path d="M25.5319 24.9375C27.6471 24.9375 29.3617 23.1746 29.3617 21C29.3617 18.8254 27.6471 17.0625 25.5319 17.0625C23.4168 17.0625 21.7021 18.8254 21.7021 21C21.7021 23.1746 23.4168 24.9375 25.5319 24.9375Z" stroke="#31E1F3" stroke-width="2" stroke-miterlimit="10"/>
<path d="M34.4679 17.0625V14.4375C34.4679 11.5369 32.1827 9.1875 29.3615 9.1875H8.93594C6.11466 9.1875 3.82956 11.5369 3.82956 14.4375V17.0625C2.4253 17.0625 1.27637 18.2437 1.27637 19.6875V23.625C1.27637 25.0688 2.4253 26.25 3.82956 26.25V32.8125H34.4679V26.25C35.8721 26.25 37.021 25.0688 37.021 23.625V19.6875C37.021 18.2437 35.8721 17.0625 34.4679 17.0625Z" stroke="#31E1F3" stroke-width="2" stroke-miterlimit="10"/>
<path d="M34.4679 17.0625V14.4375C34.4679 11.5369 32.1827 9.1875 29.3615 9.1875H8.93594C6.11466 9.1875 3.82956 11.5369 3.82956 14.4375V17.0625C2.4253 17.0625 1.27637 18.2437 1.27637 19.6875V23.625C1.27637 25.0688 2.4253 26.25 3.82956 26.25V32.8125H34.4679V26.25C35.8721 26.25 37.021 25.0688 37.021 23.625V19.6875C37.021 18.2437 35.8721 17.0625 34.4679 17.0625Z" stroke="white" stroke-width="2" stroke-miterlimit="10"/>
<path d="M19.1494 9.1875V0" stroke="#31E1F3" stroke-width="2" stroke-miterlimit="10"/>
<path d="M19.1494 9.1875V0" stroke="white" stroke-width="2" stroke-miterlimit="10"/>
<path d="M3.83001 56.4375L15.3194 61.6875H48.1024C49.1236 61.6875 50.0555 61.0575 50.4513 60.0862L58.5194 40.3988C59.2215 38.6663 57.996 36.75 56.1704 36.75H24.7151C23.6683 36.75 22.7364 37.4063 22.3406 38.4038L15.3194 56.4375L3.58746 50.9512C2.31086 50.3606 1.73639 48.8119 2.31086 47.4994L5.71937 39.6244C6.12788 38.6794 7.04703 38.0625 8.05554 38.0625H12.7789V32.8125" stroke="#31E1F3" stroke-width="2" stroke-miterlimit="10"/>
<path d="M3.83001 56.4375L15.3194 61.6875H48.1024C49.1236 61.6875 50.0555 61.0575 50.4513 60.0862L58.5194 40.3988C59.2215 38.6663 57.996 36.75 56.1704 36.75H24.7151C23.6683 36.75 22.7364 37.4063 22.3406 38.4038L15.3194 56.4375L3.58746 50.9512C2.31086 50.3606 1.73639 48.8119 2.31086 47.4994L5.71937 39.6244C6.12788 38.6794 7.04703 38.0625 8.05554 38.0625H12.7789V32.8125" stroke="white" stroke-width="2" stroke-miterlimit="10"/>
<path d="M35.7451 48.5625H39.5749" stroke="#31E1F3" stroke-width="2" stroke-miterlimit="10"/>
<path d="M35.7451 48.5625H39.5749" stroke="white" stroke-width="2" stroke-miterlimit="10"/>
</g>
<defs>
<clipPath id="clip0_92_837">
<rect width="60" height="63" fill="white"/>
</clipPath>
</defs>
</svg>
