<svg width="72" height="61" viewBox="0 0 72 61" fill="none" xmlns="http://www.w3.org/2000/svg">
<g clip-path="url(#clip0_92_888)">
<path d="M63.0492 0.825195H8.95082C4.45831 0.825195 0.816406 4.50602 0.816406 9.04654V45.0975C0.816406 49.638 4.45831 53.3188 8.95082 53.3188H63.0492C67.5417 53.3188 71.1836 49.638 71.1836 45.0975V9.04654C71.1836 4.50602 67.5417 0.825195 63.0492 0.825195Z" stroke="#31E1F3" stroke-width="2" stroke-linecap="round" stroke-linejoin="round"/>
<ellipse cx="7.36231" cy="6.74408" rx="0.816411" ry="0.825135" fill="#31E1F3"/>
<ellipse cx="11.6221" cy="6.74408" rx="0.816411" ry="0.825135" fill="#31E1F3"/>
<ellipse cx="15.8828" cy="6.74408" rx="0.816411" ry="0.825135" fill="#31E1F3"/>
<path d="M48.2646 45.0977H71.1835" stroke="#31E1F3" stroke-width="2" stroke-linecap="round" stroke-linejoin="round"/>
<path d="M0.816406 45.0977H24.7447" stroke="#31E1F3" stroke-width="2" stroke-linecap="round" stroke-linejoin="round"/>
<path d="M26.4219 60.1748H45.5778" stroke="#31E1F3" stroke-width="2" stroke-linecap="round" stroke-linejoin="round"/>
<path d="M30.3779 60.1748L31.6842 53.3262" stroke="#31E1F3" stroke-width="2" stroke-linecap="round" stroke-linejoin="round"/>
<path d="M41.6217 60.1745L41.0947 57.4141" stroke="#31E1F3" stroke-width="2" stroke-linecap="round" stroke-linejoin="round"/>
<path d="M22.5701 19.5705C23.7711 19.5705 24.7448 18.5865 24.7448 17.3727C24.7448 16.1588 23.7711 15.1748 22.5701 15.1748C21.3691 15.1748 20.3955 16.1588 20.3955 17.3727C20.3955 18.5865 21.3691 19.5705 22.5701 19.5705Z" stroke="#31E1F3" stroke-width="2" stroke-linecap="round" stroke-linejoin="round"/>
<path d="M19.5867 28.5422C20.7877 28.5422 21.7614 27.5582 21.7614 26.3443C21.7614 25.1305 20.7877 24.1465 19.5867 24.1465C18.3857 24.1465 17.4121 25.1305 17.4121 26.3443C17.4121 27.5582 18.3857 28.5422 19.5867 28.5422Z" stroke="#31E1F3" stroke-width="2" stroke-linecap="round" stroke-linejoin="round"/>
<path d="M26.6152 20.3135C28.9977 21.9187 30.9348 22.4663 34.3489 22.2638" stroke="#31E1F3" stroke-width="2" stroke-linecap="round" stroke-linejoin="round"/>
<path d="M22.5701 37.5207C23.7711 37.5207 24.7448 36.5367 24.7448 35.3229C24.7448 34.109 23.7711 33.125 22.5701 33.125C21.3691 33.125 20.3955 34.109 20.3955 35.3229C20.3955 36.5367 21.3691 37.5207 22.5701 37.5207Z" stroke="#31E1F3" stroke-width="2" stroke-linecap="round" stroke-linejoin="round"/>
<path d="M26.749 32.2847C29.0721 30.7469 30.9944 30.2218 34.3491 30.4244" stroke="#31E1F3" stroke-width="2" stroke-linecap="round" stroke-linejoin="round"/>
<path d="M25.1758 26.3438H35.9153" stroke="#31E1F3" stroke-width="2" stroke-linecap="round" stroke-linejoin="round"/>
<path d="M31.4768 41.6319L31.6252 43.0422C31.7439 44.1824 32.694 45.0375 33.8295 45.0375H39.062C40.1901 45.0375 41.1401 44.1749 41.2663 43.0422L41.4221 41.6244C41.4963 40.9118 41.9045 40.2817 42.5131 39.9292L45.0514 38.4439C45.66 38.0839 46.4097 38.0463 47.0554 38.3314L48.3393 38.909C49.371 39.3741 50.5882 38.969 51.1523 37.9788L53.7722 33.3956C54.3363 32.4054 54.0765 31.1452 53.1636 30.4701L52.028 29.63C51.4566 29.2099 51.1226 28.5348 51.1226 27.8222V24.8517C51.1226 24.1391 51.4566 23.464 52.028 23.0439L53.1562 22.2113C54.0691 21.5361 54.3363 20.2759 53.7648 19.2858L51.1448 14.7025C50.5808 13.7124 49.371 13.3148 48.3319 13.7724L47.0405 14.35C46.3948 14.635 45.6526 14.5975 45.0366 14.2374L42.4983 12.7522C41.8897 12.3921 41.4815 11.762 41.4073 11.0569L41.2588 9.64669C41.1401 8.50651 40.1901 7.65137 39.0545 7.65137H33.8221C32.694 7.65137 31.7439 8.51401 31.6178 9.64669L31.4619 11.0644" stroke="#31E1F3" stroke-width="2" stroke-linecap="round" stroke-linejoin="round"/>
<path d="M33.124 34.3112C36.2338 35.6314 39.9522 35.0163 42.4831 32.4584C45.8229 29.0828 45.8229 23.6144 42.4831 20.2464C39.9819 17.7185 36.308 17.0884 33.2279 18.3486" stroke="#31E1F3" stroke-width="2" stroke-linecap="round" stroke-linejoin="round"/>
</g>
<defs>
<clipPath id="clip0_92_888">
<rect width="72" height="61" fill="white"/>
</clipPath>
</defs>
</svg>
