<svg width="62" height="63" viewBox="0 0 62 63" fill="none" xmlns="http://www.w3.org/2000/svg">
<g clip-path="url(#clip0_92_845)">
<path d="M49.0044 19.2596L48.6997 23.0503C48.6788 23.2954 48.7863 23.5347 48.9834 23.6865L52.033 26.0472C52.7856 26.628 52.5198 27.804 51.5879 28.0228L47.8066 28.91C47.5617 28.9683 47.3616 29.1405 47.275 29.371L45.919 32.9341C45.5845 33.8125 44.3599 33.9292 43.8581 33.1296L41.8241 29.8905C41.6927 29.6803 41.4627 29.549 41.2118 29.5374L37.326 29.3798C36.3672 29.3418 35.8744 28.2388 36.4986 27.5268L39.0255 24.6349C39.1897 24.4481 39.2465 24.1942 39.1778 23.9549L38.1294 20.2956C37.8696 19.3939 38.7895 18.5943 39.6766 18.9532L43.2697 20.4065C43.5027 20.4998 43.7685 20.4765 43.9776 20.3393L47.2182 18.2354C48.0187 17.7159 49.079 18.3258 49.0014 19.2596H49.0044Z" stroke="#31E1F3" stroke-width="2" stroke-linecap="round" stroke-linejoin="round"/>
<path d="M26.7236 38.4642L41.7622 46.9473C46.9502 43.8657 52.4908 39.4214 56.1406 33.2466C62.4368 22.5924 61.3496 9.735 60.3012 3.56311C59.9607 1.56417 57.8461 0.373568 55.9077 1.0856C49.9161 3.28588 37.9749 8.79536 31.6817 19.4495C28.0319 25.6243 26.864 32.5374 26.7266 38.4642H26.7236Z" stroke="#31E1F3" stroke-width="2" stroke-linecap="round" stroke-linejoin="round"/>
<path d="M30.7524 21.1333C29.6861 21.3376 28.6108 21.6469 27.5655 22.0934C20.5972 25.0874 17.4521 33.0802 17.4521 33.0802C17.4521 33.0802 21.8666 34.7815 26.9711 34.4897" stroke="#31E1F3" stroke-width="2" stroke-linecap="round" stroke-linejoin="round"/>
<path d="M45.1523 44.7471C47.4462 49.2119 51.1618 52.0979 51.1618 52.0979C51.1618 52.0979 56.6754 45.4387 55.8451 38.047C55.7196 36.9381 55.4568 35.8759 55.1044 34.8691" stroke="#31E1F3" stroke-width="2" stroke-linecap="round" stroke-linejoin="round"/>
<path d="M48.2939 4.49414L54.6021 8.05137" stroke="#31E1F3" stroke-width="2" stroke-linecap="round" stroke-linejoin="round"/>
<path d="M29.9397 49.9678L24.9219 58.4567" stroke="#31E1F3" stroke-width="2" stroke-linecap="round" stroke-linejoin="round"/>
<path d="M18.4796 57.2715L15.6123 62.1244" stroke="#31E1F3" stroke-width="2" stroke-linecap="round" stroke-linejoin="round"/>
<path d="M24.5815 46.9473L20.4209 53.9858" stroke="#31E1F3" stroke-width="2" stroke-linecap="round" stroke-linejoin="round"/>
<path d="M35.295 52.9907L32.9922 56.8894" stroke="#31E1F3" stroke-width="2" stroke-linecap="round" stroke-linejoin="round"/>
<path d="M14.1161 44.8052C13.901 43.6758 14.0803 42.4677 14.7135 41.3968C16.1232 39.0097 19.2474 38.1926 21.6906 39.57" stroke="#31E1F3" stroke-width="2" stroke-linecap="round" stroke-linejoin="round"/>
<path d="M6.75098 42.1089C8.16075 39.7219 11.2849 38.9077 13.7281 40.2851C14.1582 40.5273 14.5406 40.8249 14.8691 41.1576" stroke="#31E1F3" stroke-width="2" stroke-linecap="round" stroke-linejoin="round"/>
<path d="M0.896484 37.4139C3.29787 35.9665 6.44297 36.6989 7.92443 39.0451C8.18428 39.4595 8.37842 39.9031 8.50386 40.3495" stroke="#31E1F3" stroke-width="2" stroke-linecap="round" stroke-linejoin="round"/>
<path d="M45.1578 58.5702C46.5676 56.1832 45.7313 53.1308 43.2881 51.7534" stroke="#31E1F3" stroke-width="2" stroke-linecap="round" stroke-linejoin="round"/>
<path d="M26.7891 43.3726L37.7924 49.5795" stroke="#31E1F3" stroke-width="2" stroke-linecap="round" stroke-linejoin="round"/>
</g>
<defs>
<clipPath id="clip0_92_845">
<rect width="62" height="63" fill="white"/>
</clipPath>
</defs>
</svg>
