<svg width="63" height="71" viewBox="0 0 63 71" fill="none" xmlns="http://www.w3.org/2000/svg">
<g clip-path="url(#clip0_92_911)">
<path d="M5.39355 24.9395V46.0599" stroke="#31E1F3" stroke-width="2" stroke-linecap="round" stroke-linejoin="round"/>
<path d="M27.6029 63.3613L13 54.9424" stroke="#31E1F3" stroke-width="2" stroke-linecap="round" stroke-linejoin="round"/>
<path d="M57.6064 24.9395V41.6147" stroke="#31E1F3" stroke-width="2" stroke-linecap="round" stroke-linejoin="round"/>
<path d="M27.6036 7.63867L9.29102 18.1948" stroke="#31E1F3" stroke-width="2" stroke-linecap="round" stroke-linejoin="round"/>
<path d="M53.7097 18.1941L39.2939 9.88086" stroke="#31E1F3" stroke-width="2" stroke-linecap="round" stroke-linejoin="round"/>
<path d="M53.7091 52.7969L35.3965 63.3611" stroke="#31E1F3" stroke-width="2" stroke-linecap="round" stroke-linejoin="round"/>
<path d="M16.3281 26.7517L9.29102 22.6885" stroke="#31E1F3" stroke-width="2" stroke-linecap="round" stroke-linejoin="round"/>
<path d="M53.7093 22.6885L49.8125 24.9395" stroke="#31E1F3" stroke-width="2" stroke-linecap="round" stroke-linejoin="round"/>
<path d="M7.64722 16.5529C9.80309 17.7962 10.5353 20.5429 9.29056 22.6964C8.04586 24.8499 5.29611 25.5813 3.14025 24.3379C0.98439 23.0946 0.25221 20.3479 1.49692 18.1944C2.74162 16.0409 5.49136 15.3096 7.64722 16.5529Z" stroke="#31E1F3" stroke-width="2" stroke-linecap="round" stroke-linejoin="round"/>
<path d="M31.4998 9.88131C33.9845 9.88131 35.9987 7.86933 35.9987 5.38743C35.9987 2.90553 33.9845 0.893555 31.4998 0.893555C29.0152 0.893555 27.001 2.90553 27.001 5.38743C27.001 7.86933 29.0152 9.88131 31.4998 9.88131Z" stroke="#31E1F3" stroke-width="2" stroke-linecap="round" stroke-linejoin="round"/>
<path d="M59.8515 24.3381C57.6956 25.5814 54.9459 24.842 53.7012 22.6966C52.4565 20.5431 53.1968 17.7964 55.3445 16.5531C57.5004 15.3097 60.2501 16.0492 61.4948 18.1946C62.7395 20.3481 61.9992 23.0948 59.8515 24.3381Z" stroke="#31E1F3" stroke-width="2" stroke-linecap="round" stroke-linejoin="round"/>
<path d="M55.3531 54.4463C53.1973 53.203 52.4651 50.4563 53.7098 48.3028C54.9545 46.1493 57.7043 45.418 59.8601 46.6613C62.016 47.9046 62.7482 50.6513 61.5035 52.8048C60.2587 54.9583 57.509 55.6897 55.3531 54.4463Z" stroke="#31E1F3" stroke-width="2" stroke-linecap="round" stroke-linejoin="round"/>
<path d="M27.001 65.6042C27.001 63.1257 29.0185 61.1104 31.4998 61.1104C33.9811 61.1104 35.9987 63.1257 35.9987 65.6042C35.9987 68.0828 33.9811 70.0981 31.4998 70.0981C29.0185 70.0981 27.001 68.0828 27.001 65.6042Z" stroke="#31E1F3" stroke-width="2" stroke-linecap="round" stroke-linejoin="round"/>
<path d="M3.14824 46.6615C5.3041 45.4181 8.05384 46.1576 9.29855 48.303C10.5433 50.4565 9.80294 53.2032 7.65521 54.4465C5.49935 55.6898 2.74961 54.9504 1.5049 52.805C0.260198 50.6515 1.00051 47.9048 3.14824 46.6615Z" stroke="#31E1F3" stroke-width="2" stroke-linecap="round" stroke-linejoin="round"/>
<path d="M31.5 52.7969V61.1101" stroke="#31E1F3" stroke-width="2" stroke-linecap="round" stroke-linejoin="round"/>
<path d="M42.2713 22.7129H42.2225C40.9061 22.7129 39.8389 23.7789 39.8389 25.0939V45.8974C39.8389 47.2124 40.9061 48.2784 42.2225 48.2784H42.2713C43.5878 48.2784 44.655 47.2124 44.655 45.8974V25.0939C44.655 23.7789 43.5878 22.7129 42.2713 22.7129Z" stroke="#31E1F3" stroke-width="2" stroke-linecap="round" stroke-linejoin="round"/>
<path d="M24.0889 36.4139L25.9681 30.2542L28.6528 38.9656C28.9538 39.9489 28.2216 40.9403 27.1884 40.9403H24.4387C23.4055 40.9403 22.5025 41.6148 22.2015 42.5981L20.9893 46.5881C20.6883 47.5877 19.7609 48.2784 18.7114 48.2784C17.1006 48.2784 15.9535 46.7182 16.4417 45.1823L22.8035 25.0289C23.2347 23.6474 24.52 22.7129 25.9681 22.7129C27.4162 22.7129 28.6935 23.6474 29.1328 25.0289L35.4946 45.1823C35.9827 46.7182 34.8356 48.2784 33.2248 48.2784C32.1754 48.2784 31.248 47.5958 30.9469 46.5881L30.3287 44.5565" stroke="#31E1F3" stroke-width="2" stroke-linecap="round" stroke-linejoin="round"/>
</g>
<defs>
<clipPath id="clip0_92_911">
<rect width="63" height="71" fill="white"/>
</clipPath>
</defs>
</svg>
